<svg xmlns="http://www.w3.org/2000/svg" viewBox="0 0 290.7 60.7"><defs><style>.a{fill:#03b674;}.b{isolation:isolate;}.c{fill:#fff;}</style></defs><title>BJA-noFrill</title><path class="a" d="M150.5,32.3v1.9h18.3V32.1c0-2.4-1.9-.7-3.9-3.9l-9.5-15.9,3.2-3.8c4-4.2,6.8-1,6.8-4.6v-2H151V4.3c0,2.3,2.3.6,2.3,2.3a4.3,4.3,0,0,1-1.5,2.6l-5.5,6.1V11.1c0-4.3,0-4.7,1.3-5.3s1.2-.7,1.2-1.9V1.7H132.3V4.3c0,2.9,3,.2,3,4.2V27.8c0,4-3,1.3-3,4.3v2.3h16.5V32.3c0-1.3,0-1.5-1-1.9s-1.5-.9-1.5-5.3V18.7h0l5.1,8.7a3.9,3.9,0,0,1,.8,2.1C152.4,31.2,150.5,29.7,150.5,32.3Zm19.1,4.8v3.4c4,0,14.4-2.3,14.4-13.7V9.8c0-2.1,0-3.6,1.5-3.8s1.7-.4,1.7-1.9V1.9H169.8V4.1c0,1.5.4,1.5,1.5,1.7s2.1.4,2.1,3.4V28.5a18.7,18.7,0,0,1-.8,5.7,10.3,10.3,0,0,1-3,2.9ZM81.2,31.8v2.6h19.5V32.5c0-3-2.3-.7-3.8-4.3L85.9,1.1C85.2-.2,85.2-.2,84,.3l-7.7,4c-.4.2-1,.6-.6,1.3l.6,2.3L67.8,27.8c-1.7,4.3-4.4,1.9-4.4,4.7v1.7H75.7V32.5c0-3.4-3.2-.9-3.2-3.6a5.5,5.5,0,0,1,.6-2.6H83.5a5.4,5.4,0,0,1,.9,2.6C84.6,30.6,81.2,29.9,81.2,31.8Zm-6.1-9.7,3.3-8.5,3.4,8.5Zm128.4,9.7v2.6H223V32.5c0-3-2.3-.7-3.8-4.3L208,1.1c-.7-1.3-.7-1.3-1.9-.8l-7.7,4c-.4.2-1,.6-.6,1.3l.9,2.3-8.5,19.9c-1.7,4.3-4.5,1.9-4.5,4.7v1.7H198V32.5c0-3.4-2.9-.9-2.9-3.6a5.5,5.5,0,0,1,.6-2.6h10.4a6.4,6.4,0,0,1,.6,2.8c-.2,1.5-3.4.8-3.2,2.7Zm-6.3-9.7,3.4-8.5,3.4,8.5ZM238.9,35c9.4,0,13.2-5.5,13.2-7s-.2-.8-2.8-2.5a8.8,8.8,0,0,1-7.6,4.6c-7.9,0-7.9-10.6-7.9-12.5s.5-12.5,7-12.5c3.4,0,4.5,2.4,5.3,4.5s1.3,2.7,2.6,2.7h2.7V2.8h-2.9c-.9,0-.9.6-1.5.6a27.7,27.7,0,0,0-9.1-2.3c-7.4,0-17.4,4.9-17.4,16.5C220.3,26.1,226,35,238.9,35ZM116.8,35c9.3,0,13.2-5.5,13.2-7s-.2-.8-2.8-2.5a8.8,8.8,0,0,1-7.6,4.6c-7.9,0-7.9-10.6-7.9-12.5s.5-12.5,7-12.5c3.2,0,4.5,2.4,5.3,4.3s1.1,2.9,2.6,2.9h2.7V2.8h-2.9c-.9,0-.9.6-1.5.6a28.4,28.4,0,0,0-9.1-2.3c-7.5,0-17.4,4.9-17.4,16.5,0,8.5,5.7,17.4,18.4,17.4Zm170.1-6.5-9.6-15.9,3.2-3.9c3.8-4.4,6.6-1.2,6.6-4.8v-2H272.9V4.3c0,2.3,2.3.6,2.3,2.3a3.9,3.9,0,0,1-1.5,2.6l-5.5,6.1V11.1c0-4.3,0-4.7,1.3-5.3s1.2-.7,1.2-1.9V1.7H254.4V4.3c0,2.9,3,.2,3,4.2V27.8c0,4-3,1.3-3,4.3v2.3H271V32.3c0-1.3,0-1.5-1.1-1.9s-1.5-.9-1.5-5.3V18.7h0l5.1,8.7a3.9,3.9,0,0,1,.8,2.1c0,1.7-1.9.2-1.9,2.8v1.9h18.3V32.1C290.7,29.7,288.8,31.4,286.9,28.5ZM0,32.1v2.3H21.2c8.1,0,11.9-3.6,11.9-9.6a7,7,0,0,0-2.4-5.3c-1.9-1.6-4.2-2.1-7.8-2.5h0c5.1,0,8.9-2.3,8.9-7.2.2-7.6-8.3-7.6-11.2-7.6H0V4.3c0,2.9,3,0,3,4.4V27.6C3,32.1,0,28.9,0,32.1ZM14,6.2h2.1c1.5,0,4.3,0,4.3,4.4a4.3,4.3,0,0,1-3.7,4.7H14Zm0,13.3h1.9a5.3,5.3,0,0,1,5.3,4.9v.9c0,2.9-1.3,4.8-4.5,4.8H14ZM34.3,32.1v2.3H61.5V24.2H59.6c-4.1,0-.9,5.9-7.7,5.9h-4V8.9c0-4.6,3-1.7,3-4.6V1.9H34.1V4.3c0,2.9,3,0,3,4.6V27.4c0,4.7-2.8,1.5-2.8,4.7Z"/><g class="b"><path class="c" d="M37.3,60.3l-.8-2.4h-6l-.8,2.4H26.3l5.3-13.8h3.6l5.3,13.8ZM33.5,49.4l-2.1,6h4.2Z"/><path class="c" d="M46.9,60.3V46.5h6.3a4.5,4.5,0,1,1,0,8.9H49.6v4.9Zm8-9.4A2,2,0,0,0,52.8,49H49.6v3.8h3.2C54.1,52.8,54.9,52.2,54.9,50.9Z"/><path class="c" d="M64.7,60.3V46.5H71a4.5,4.5,0,1,1,0,8.9H67.4v4.9Zm8-9.4A2,2,0,0,0,70.6,49H67.4v3.8h3.2C71.9,52.8,72.7,52.2,72.7,50.9Z"/><path class="c" d="M90.3,60.3l-2.7-4.9H85.4v4.9H82.5V46.5h6.3c3,0,4.7,1.9,4.7,4.4a3.9,3.9,0,0,1-3,4.1l3.2,5.3Zm.2-9.4A2,2,0,0,0,88.4,49H85.2v3.8h3.2C89.7,52.8,90.5,52.2,90.5,50.9Z"/><path class="c" d="M100.7,60.3V46.5h9.8V49h-6.8v3h6.5v2.5h-6.5v3.2h6.8v2.6Z"/><path class="c" d="M127.2,60.3l-6.6-9v9h-2.9V46.5h2.9l6.4,8.7V46.5h3V60.3Z"/><path class="c" d="M140.8,60.3V49h-4.1V46.5h11.1V49h-4.1V60.3Z"/><path class="c" d="M154.6,60.3V46.5h2.9V60.3Z"/><path class="c" d="M164.5,53.5a7,7,0,0,1,7.4-7.2,6.4,6.4,0,0,1,5.8,3.4l-2.6,1.2a4,4,0,0,0-3.2-1.9,4.2,4.2,0,0,0-4.2,4.5,4.3,4.3,0,0,0,4.2,4.4,3.3,3.3,0,0,0,3.2-1.9l2.6,1.3a6.6,6.6,0,0,1-5.8,3.4C167.7,60.5,164.5,57.7,164.5,53.5Z"/><path class="c" d="M184.5,60.3V46.5h9.7V49h-6.8v3H194v2.5h-6.6v3.2h6.8v2.6Z"/><path class="c" d="M200.4,58.3l1.4-2.3a6.2,6.2,0,0,0,4.5,1.9c1.7,0,2.3-.8,2.3-1.5,0-2.3-7.8-.8-7.8-5.9,0-2.3,1.9-4.2,5.3-4.2a7.3,7.3,0,0,1,5.3,1.9l-1.7,2.1a5.6,5.6,0,0,0-4-1.5c-1.3,0-2,.6-2,1.5s7.9.6,7.9,5.9c0,2.6-1.7,4.5-5.5,4.5A8.4,8.4,0,0,1,200.4,58.3Z"/><path class="c" d="M228.1,60.3V54.5h-6.5v5.8h-3V46.5h3V52h6.5V46.5h3V60.3Z"/><path class="c" d="M238.7,60.3V46.5h3V60.3Z"/></g><g class="b"><path class="c" d="M251.9,60.3V46.5h6.3a4.5,4.5,0,1,1,0,8.9h-3.6v4.9Zm8-9.4a2,2,0,0,0-2.1-1.9h-3.2v3.8h3.2C259.1,52.8,259.9,52.2,259.9,50.9Z"/></g></svg>