<svg width="25" height="24" viewBox="0 0 25 24" fill="none" xmlns="http://www.w3.org/2000/svg">
<path d="M0 24V22.2857C0 19.9006 2.23602 22.2857 2.23602 18.9317V4.84472C2.23602 1.56522 0 3.72671 0 1.56522V0H15.354C17.5155 0 23.8509 0 23.7019 5.6646C23.7019 9.31677 20.8696 11.0311 17.0683 11.0311C19.7516 11.3292 21.4658 11.7019 22.882 12.8944C23.446 13.3861 23.8976 13.9933 24.2063 14.6749C24.5149 15.3565 24.6733 16.0965 24.6708 16.8447C24.6708 21.3168 21.8385 24 15.8012 24H0Z" fill="#03B674"/>
<path d="M12.0002 2.98145H10.4349V9.76405H12.4474C13.2718 9.65231 14.0205 9.22433 14.5352 8.57059C15.0498 7.91685 15.2901 7.0886 15.2051 6.26095C15.2051 2.98145 13.1182 2.98145 12.0002 2.98145Z" fill="#0C3326"/>
<path d="M11.8511 12.8945H10.4349V20.7951H12.4474C14.8325 20.7951 15.8014 19.379 15.8014 17.2175V16.5467C15.7261 15.5515 15.2769 14.6217 14.544 13.9442C13.8112 13.2667 12.8491 12.8916 11.8511 12.8945Z" fill="#0C3326"/>
</svg>
